<svg width="1723" height="2365" xmlns="http://www.w3.org/2000/svg" xmlns:xlink="http://www.w3.org/1999/xlink" xml:space="preserve" overflow="hidden"><g transform="translate(-105 -325)"><g><path d="M331 868.194 978 348 1625 878.256 1566.27 878.797 1561.24 1386 405.919 1385.93 400.894 870.206 331 868.194Z" stroke="#156082" stroke-width="27.5" stroke-linecap="butt" stroke-linejoin="miter" stroke-miterlimit="8" stroke-opacity="1" fill="none" fill-rule="evenodd"/><text fill="#156082" fill-opacity="1" font-family="Calibri,Calibri_MSFontService,sans-serif" font-style="normal" font-variant="normal" font-weight="400" font-stretch="normal" font-size="458" text-anchor="start" direction="ltr" writing-mode="lr-tb" unicode-bidi="normal" text-decoration="none" transform="matrix(1 0 0 1 387.147 1395)">LP</text><text fill="#156082" fill-opacity="1" font-family="Calibri,Calibri_MSFontService,sans-serif" font-style="normal" font-variant="normal" font-weight="400" font-stretch="normal" font-size="458" text-anchor="start" direction="ltr" writing-mode="lr-tb" unicode-bidi="normal" text-decoration="none" transform="matrix(1 0 0 1 715.657 2043)">A</text><text fill="#156082" fill-opacity="1" font-family="Calibri,Calibri_MSFontService,sans-serif" font-style="normal" font-variant="normal" font-weight="400" font-stretch="normal" font-size="275" text-anchor="start" direction="ltr" writing-mode="lr-tb" unicode-bidi="normal" text-decoration="none" transform="matrix(1 0 0 1 437.451 2055)">PLANNE</text><text fill="#156082" fill-opacity="1" font-family="Calibri,Calibri_MSFontService,sans-serif" font-style="normal" font-variant="normal" font-weight="400" font-stretch="normal" font-size="275" text-anchor="start" direction="ltr" writing-mode="lr-tb" unicode-bidi="normal" text-decoration="none" transform="matrix(1 0 0 1 915.997 2444)">R</text><rect x="799" y="845" width="157" height="158" fill="#156082" fill-opacity="1"/><rect x="991" y="845" width="158" height="158" fill="#156082" fill-opacity="1"/><rect x="799" y="1047" width="157" height="157" fill="#156082" fill-opacity="1"/><rect x="995" y="1047" width="158" height="157" fill="#156082" fill-opacity="1"/></g></g></svg>
